<svg xmlns="http://www.w3.org/2000/svg" viewBox="0 0 72.11 73.71"><defs><style>.cls-1{fill:#a3bd31;}.cls-2{font-size:6px;}.cls-2,.cls-3{fill:#9bb336;font-family:ComicSansMS-Bold, Comic Sans MS;font-weight:700;}.cls-3{font-size:8px;}</style></defs><title>Recurso 2</title><g id="Capa_2" data-name="Capa 2"><g id="Capa_2-2" data-name="Capa 2"><path class="cls-1" d="M2.68.46C3.94.33,14.14-2.15,18.11,5.91s3.7,11.4,2,14.17-5.65,3.65-6.82,1.37S13,13.9,11.64,9.76,8,2.46,3.41,2.56C-.14,2.63,0,2.21,0,1.78S.5.69,2.68.46Z"/><path class="cls-1" d="M16.07,1.09c.59.1,6.34.4,6.4,11.6a11.07,11.07,0,0,1,6.13,3,21.38,21.38,0,0,0-1.09-7.59C25.76,3.38,20.65.9,17.82.41S15.44,1,16.07,1.09Z"/><path class="cls-1" d="M35.26,49.8a22,22,0,0,1-6-12.65c-1.39-.09-2.71-.22-3.92-.38a15,15,0,0,0-4.63,5.59,14.35,14.35,0,0,0,0,10.62,14.54,14.54,0,0,0,3.6,5.22A35,35,0,0,0,36.71,60,54.9,54.9,0,0,0,52.4,57.22C45.06,56.41,39.32,53.93,35.26,49.8Z"/><path class="cls-1" d="M60.28,27.85a13.82,13.82,0,0,1-2.15,2.6c-6.55,6.21-19,6.85-23.83,6.85-.86,0-1.48,0-1.8,0l-1.27,0a20.19,20.19,0,0,0,5.44,11.21c4.36,4.42,10.92,6.8,19.53,7.09A7.28,7.28,0,0,0,59.11,53c1.56-3,1.17-11.44,1.17-14.26Z"/><path class="cls-1" d="M65,.51c-3.12,0-15,2.58-15.53,13.1-.38,8.27-.26,16.7-4.86,20.79C49,33.55,53.69,32,56.79,29a11,11,0,0,0,3.49-7.25v-8c0-3.75.58-8.42,4.28-9.54s7.55-.84,7.55-2.14C72.11.12,68.07.51,65,.51Z"/><path class="cls-1" d="M38.66,23.1c-.88-1.85-1.7-.58-3.51-.58s-3.65-.68-5.25-3.26c-1.21-2-3.88-4.77-7.45-5.24a9.1,9.1,0,0,1-1.21,6.76,6.89,6.89,0,0,1-5.59,3.3,3.89,3.89,0,0,1-3.09-1.36,18.73,18.73,0,0,0-.09,1.92V42.53c0,5.16.19,8.81,1.85,10.42a24.77,24.77,0,0,0,6.11,3.74,15.82,15.82,0,0,1-1.58-3c-.06-.15-.11-.31-.16-.46a16.35,16.35,0,0,1,.21-11.65,18,18,0,0,1,6.74-7.43A36.46,36.46,0,0,1,32,30.4c3.38-1.51,5.58-3.41,6.44-5A2.53,2.53,0,0,0,38.66,23.1Zm-15.29.63a2.78,2.78,0,0,1,2.57-.16,7.07,7.07,0,0,1-1.76.88,4.27,4.27,0,0,1-1.72.06S22.14,24.55,23.37,23.73Zm8.3,6a36,36,0,0,0-6.47,3.82,18.73,18.73,0,0,0-7,7.76,17,17,0,0,0-1.11,8.52A14.13,14.13,0,0,1,15.8,39.53c1.67-5.67,6.08-7.22,11.66-9.18l1-.37c2.64-.94,5.22-1.92,7.26-2.73A18.51,18.51,0,0,1,31.67,29.7Z"/><text class="cls-2" transform="translate(16.85 71.29)">WRITE</text><text class="cls-3" transform="translate(38.83 71.29)">CODE</text></g></g></svg>